<svg width="42" height="28.912" viewBox="0 0 42 28.912">
  <defs>
    <clipPath id="clip-path">
      <rect class="cls-1" width="42" height="28.912" transform="translate(1079.5 -594.5)"/>
    </clipPath>
  </defs>
  <g id="disable-slidelist" class="cls-2" transform="translate(-1079.5 594.5)">
    <line class="cls-3" y1="0.86" x2="107.518" transform="translate(1095.02 -660.503) rotate(45)"/>
    <line class="cls-3" y1="0.86" x2="107.518" transform="translate(1069.607 -635.494) rotate(45)"/>
    <line class="cls-3" y1="0.86" x2="107.518" transform="translate(1041.018 -607.358) rotate(45)"/>
    <line class="cls-3" y1="0.86" x2="107.518" transform="translate(1085.49 -651.124) rotate(45)"/>
    <line class="cls-3" y1="0.86" x2="107.518" transform="translate(1060.078 -626.115) rotate(45)"/>
    <line class="cls-3" y1="0.86" x2="107.518" transform="translate(1031.488 -597.98) rotate(45)"/>
    <line class="cls-3" y1="0.86" x2="107.518" transform="translate(1075.96 -641.746) rotate(45)"/>
    <line class="cls-3" y1="0.86" x2="107.518" transform="translate(1050.548 -616.737) rotate(45)"/>
    <line class="cls-3" y1="0.86" x2="107.518" transform="translate(1021.958 -588.601) rotate(45)"/>
    <line class="cls-3" y1="0.86" x2="107.518" transform="translate(1091.844 -657.377) rotate(45)"/>
    <line class="cls-3" y1="0.86" x2="107.518" transform="translate(1066.431 -632.367) rotate(45)"/>
    <line class="cls-3" y1="0.86" x2="107.518" transform="translate(1037.842 -604.232) rotate(45)"/>
    <line class="cls-3" y1="0.86" x2="107.518" transform="translate(1082.313 -647.998) rotate(45)"/>
    <line class="cls-3" y1="0.86" x2="107.518" transform="translate(1056.901 -622.989) rotate(45)"/>
    <line class="cls-3" y1="0.86" x2="107.518" transform="translate(1028.312 -594.854) rotate(45)"/>
    <line class="cls-3" y1="0.86" x2="107.518" transform="translate(1015.605 -582.349) rotate(45)"/>
    <line class="cls-3" y1="0.86" x2="107.518" transform="translate(1072.784 -638.62) rotate(45)"/>
    <line class="cls-3" y1="0.86" x2="107.518" transform="translate(1044.195 -610.484) rotate(45)"/>
    <line class="cls-3" y1="0.847" x2="105.847" transform="translate(1047.362 -613.601) rotate(45)"/>
    <line class="cls-3" y1="0.847" x2="105.847" transform="translate(1018.772 -585.466) rotate(45)"/>
    <line class="cls-3" y1="0.86" x2="107.518" transform="translate(1088.667 -654.25) rotate(45)"/>
    <line class="cls-3" y1="0.86" x2="107.518" transform="translate(1063.254 -629.241) rotate(45)"/>
    <line class="cls-3" y1="0.86" x2="107.518" transform="translate(1034.665 -601.106) rotate(45)"/>
    <line class="cls-3" y1="0.86" x2="107.518" transform="translate(1079.137 -644.872) rotate(45)"/>
    <line class="cls-3" y1="0.86" x2="107.518" transform="translate(1053.724 -619.863) rotate(45)"/>
    <line class="cls-3" y1="0.86" x2="107.518" transform="translate(1025.135 -591.727) rotate(45)"/>
    <line class="cls-3" y1="0.86" x2="107.518" transform="translate(1012.429 -579.223) rotate(45)"/>
    <line class="cls-3" y1="0.86" x2="107.518" transform="translate(1095.02 -660.503) rotate(45)"/>
    <line class="cls-3" y1="0.86" x2="107.518" transform="translate(1069.607 -635.494) rotate(45)"/>
    <line class="cls-3" y1="0.86" x2="107.518" transform="translate(1041.018 -607.358) rotate(45)"/>
    <line class="cls-3" y1="0.86" x2="107.518" transform="translate(1085.49 -651.124) rotate(45)"/>
    <line class="cls-3" y1="0.86" x2="107.518" transform="translate(1060.078 -626.115) rotate(45)"/>
    <line class="cls-3" y1="0.86" x2="107.518" transform="translate(1031.488 -597.98) rotate(45)"/>
    <line class="cls-3" y1="0.86" x2="107.518" transform="translate(1075.96 -641.746) rotate(45)"/>
    <line class="cls-3" y1="0.86" x2="107.518" transform="translate(1050.548 -616.737) rotate(45)"/>
    <line class="cls-3" y1="0.86" x2="107.518" transform="translate(1021.958 -588.601) rotate(45)"/>
    <line class="cls-3" y1="0.86" x2="107.518" transform="translate(1091.844 -657.377) rotate(45)"/>
    <line class="cls-3" y1="0.86" x2="107.518" transform="translate(1066.431 -632.367) rotate(45)"/>
    <line class="cls-3" y1="0.86" x2="107.518" transform="translate(1037.842 -604.232) rotate(45)"/>
    <line class="cls-3" y1="0.86" x2="107.518" transform="translate(1082.313 -647.998) rotate(45)"/>
    <line class="cls-3" y1="0.86" x2="107.518" transform="translate(1056.901 -622.989) rotate(45)"/>
    <line class="cls-3" y1="0.86" x2="107.518" transform="translate(1028.312 -594.854) rotate(45)"/>
    <line class="cls-3" y1="0.86" x2="107.518" transform="translate(1015.605 -582.349) rotate(45)"/>
    <line class="cls-3" y1="0.86" x2="107.518" transform="translate(1072.784 -638.62) rotate(45)"/>
    <line class="cls-3" y1="0.86" x2="107.518" transform="translate(1044.195 -610.484) rotate(45)"/>
    <line class="cls-3" y1="0.86" x2="107.518" transform="translate(1047.371 -613.611) rotate(45)"/>
    <line class="cls-3" y1="0.86" x2="107.518" transform="translate(1018.782 -585.475) rotate(45)"/>
    <line class="cls-3" y1="0.86" x2="107.518" transform="translate(1088.667 -654.25) rotate(45)"/>
    <line class="cls-3" y1="0.86" x2="107.518" transform="translate(1063.254 -629.241) rotate(45)"/>
    <line class="cls-3" y1="0.86" x2="107.518" transform="translate(1034.665 -601.106) rotate(45)"/>
    <line class="cls-3" y1="0.86" x2="107.518" transform="translate(1079.137 -644.872) rotate(45)"/>
    <line class="cls-3" y1="0.86" x2="107.518" transform="translate(1053.724 -619.863) rotate(45)"/>
    <line class="cls-3" y1="0.86" x2="107.518" transform="translate(1025.135 -591.727) rotate(45)"/>
    <line class="cls-3" y1="0.86" x2="107.518" transform="translate(1012.429 -579.223) rotate(45)"/>
    <line class="cls-3" x2="116.431" y2="0.931" transform="translate(1117.441 -638.012) rotate(135)"/>
    <line class="cls-3" x2="116.431" y2="0.931" transform="translate(1142.854 -613.003) rotate(135)"/>
    <line class="cls-3" x2="116.431" y2="0.931" transform="translate(1168.267 -587.993) rotate(135)"/>
    <line class="cls-3" x2="116.431" y2="0.931" transform="translate(1107.912 -647.39) rotate(135)"/>
    <line class="cls-3" x2="116.431" y2="0.931" transform="translate(1133.324 -622.381) rotate(135)"/>
    <line class="cls-3" x2="116.431" y2="0.931" transform="translate(1158.737 -597.372) rotate(135)"/>
    <line class="cls-3" x2="116.431" y2="0.931" transform="translate(1098.382 -656.769) rotate(135)"/>
    <line class="cls-3" x2="116.431" y2="0.931" transform="translate(1123.795 -631.759) rotate(135)"/>
    <line class="cls-3" x2="116.431" y2="0.931" transform="translate(1149.207 -606.75) rotate(135)"/>
    <line class="cls-3" x2="116.431" y2="0.931" transform="translate(1114.265 -641.138) rotate(135)"/>
    <line class="cls-3" x2="116.431" y2="0.931" transform="translate(1139.678 -616.128) rotate(135)"/>
    <line class="cls-3" x2="116.431" y2="0.931" transform="translate(1165.09 -591.119) rotate(135)"/>
    <line class="cls-3" x2="116.431" y2="0.931" transform="translate(1104.735 -650.516) rotate(135)"/>
    <line class="cls-3" x2="116.431" y2="0.931" transform="translate(1130.148 -625.507) rotate(135)"/>
    <line class="cls-3" x2="116.431" y2="0.931" transform="translate(1155.56 -600.498) rotate(135)"/>
    <line class="cls-3" x2="116.431" y2="0.931" transform="translate(1095.205 -659.895) rotate(135)"/>
    <line class="cls-3" x2="116.431" y2="0.931" transform="translate(1120.618 -634.885) rotate(135)"/>
    <line class="cls-3" x2="116.431" y2="0.931" transform="translate(1146.031 -609.876) rotate(135)"/>
    <line class="cls-3" x2="116.431" y2="0.931" transform="translate(1111.088 -644.264) rotate(135)"/>
    <line class="cls-3" x2="116.431" y2="0.931" transform="translate(1136.501 -619.255) rotate(135)"/>
    <line class="cls-3" x2="116.431" y2="0.931" transform="translate(1161.914 -594.246) rotate(135)"/>
    <line class="cls-3" x2="116.431" y2="0.931" transform="translate(1101.558 -653.642) rotate(135)"/>
    <line class="cls-3" x2="116.431" y2="0.931" transform="translate(1126.971 -628.633) rotate(135)"/>
    <line class="cls-3" x2="116.431" y2="0.931" transform="translate(1152.384 -603.624) rotate(135)"/>
    <line class="cls-3" x2="116.431" y2="0.931" transform="translate(1117.441 -638.012) rotate(135)"/>
    <line class="cls-3" x2="116.431" y2="0.931" transform="translate(1142.854 -613.003) rotate(135)"/>
    <line class="cls-3" x2="116.431" y2="0.931" transform="translate(1168.267 -587.993) rotate(135)"/>
    <line class="cls-3" x2="116.431" y2="0.931" transform="translate(1107.912 -647.39) rotate(135)"/>
    <line class="cls-3" x2="116.431" y2="0.931" transform="translate(1133.324 -622.381) rotate(135)"/>
    <line class="cls-3" x2="116.431" y2="0.931" transform="translate(1158.737 -597.372) rotate(135)"/>
    <line class="cls-3" x2="116.431" y2="0.931" transform="translate(1098.382 -656.769) rotate(135)"/>
    <line class="cls-3" x2="116.431" y2="0.931" transform="translate(1123.795 -631.759) rotate(135)"/>
    <line class="cls-3" x2="116.431" y2="0.931" transform="translate(1149.207 -606.75) rotate(135)"/>
    <line class="cls-3" x2="116.431" y2="0.931" transform="translate(1114.265 -641.138) rotate(135)"/>
    <line class="cls-3" x2="116.431" y2="0.931" transform="translate(1139.678 -616.128) rotate(135)"/>
    <line class="cls-3" x2="116.431" y2="0.931" transform="translate(1165.09 -591.119) rotate(135)"/>
    <line class="cls-3" x2="116.431" y2="0.931" transform="translate(1104.735 -650.516) rotate(135)"/>
    <line class="cls-3" x2="116.431" y2="0.931" transform="translate(1130.148 -625.507) rotate(135)"/>
    <line class="cls-3" x2="116.431" y2="0.931" transform="translate(1155.56 -600.498) rotate(135)"/>
    <line class="cls-3" x2="116.431" y2="0.931" transform="translate(1095.205 -659.895) rotate(135)"/>
    <line class="cls-3" x2="116.431" y2="0.931" transform="translate(1171.443 -584.867) rotate(135)"/>
    <line class="cls-3" x2="116.431" y2="0.931" transform="translate(1120.618 -634.885) rotate(135)"/>
    <line class="cls-3" x2="116.431" y2="0.931" transform="translate(1146.031 -609.876) rotate(135)"/>
    <line class="cls-3" x2="116.431" y2="0.931" transform="translate(1111.088 -644.264) rotate(135)"/>
    <line class="cls-3" x2="116.431" y2="0.931" transform="translate(1136.501 -619.255) rotate(135)"/>
    <line class="cls-3" x2="116.431" y2="0.931" transform="translate(1161.914 -594.246) rotate(135)"/>
    <line class="cls-3" x2="116.431" y2="0.931" transform="translate(1101.558 -653.642) rotate(135)"/>
    <line class="cls-3" x2="116.431" y2="0.931" transform="translate(1126.971 -628.633) rotate(135)"/>
    <line class="cls-3" x2="116.431" y2="0.931" transform="translate(1152.384 -603.624) rotate(135)"/>
  </g>
</svg>
